<svg width="774" height="744" viewBox="0 0 774 744" fill="none" xmlns="http://www.w3.org/2000/svg">
<g clip-path="url(#clip0_860_261)">
<rect y="-13" width="650" height="757" fill="#151515"/>
<rect y="-13" width="809" height="757" fill="#151515"/>
<path d="M160.888 98.448C159.16 98.448 157.635 98.1387 156.312 97.52C154.989 96.9013 153.955 96.016 153.208 94.864C152.461 93.712 152.088 92.3253 152.088 90.704V89.808H156.248V90.704C156.248 92.048 156.664 93.0613 157.496 93.744C158.328 94.4053 159.459 94.736 160.888 94.736C162.339 94.736 163.416 94.448 164.12 93.872C164.845 93.296 165.208 92.56 165.208 91.664C165.208 91.0453 165.027 90.544 164.664 90.16C164.323 89.776 163.811 89.4667 163.128 89.232C162.467 88.976 161.656 88.7413 160.696 88.528L159.96 88.368C158.424 88.0267 157.101 87.6 155.992 87.088C154.904 86.5547 154.061 85.8613 153.464 85.008C152.888 84.1547 152.6 83.0453 152.6 81.68C152.6 80.3147 152.92 79.152 153.56 78.192C154.221 77.2107 155.139 76.464 156.312 75.952C157.507 75.4187 158.904 75.152 160.504 75.152C162.104 75.152 163.523 75.4293 164.76 75.984C166.019 76.5173 167 77.328 167.704 78.416C168.429 79.4827 168.792 80.8267 168.792 82.448V83.408H164.632V82.448C164.632 81.5947 164.461 80.912 164.12 80.4C163.8 79.8667 163.331 79.4827 162.712 79.248C162.093 78.992 161.357 78.864 160.504 78.864C159.224 78.864 158.275 79.1093 157.656 79.6C157.059 80.0693 156.76 80.72 156.76 81.552C156.76 82.1067 156.899 82.576 157.176 82.96C157.475 83.344 157.912 83.664 158.488 83.92C159.064 84.176 159.8 84.4 160.696 84.592L161.432 84.752C163.032 85.0933 164.419 85.5307 165.592 86.064C166.787 86.5973 167.715 87.3013 168.376 88.176C169.037 89.0507 169.368 90.1707 169.368 91.536C169.368 92.9013 169.016 94.1067 168.312 95.152C167.629 96.176 166.648 96.9867 165.368 97.584C164.109 98.16 162.616 98.448 160.888 98.448ZM186.423 98V79.44H179.895V75.6H197.175V79.44H190.647V98H186.423ZM218.132 98.448C216.297 98.448 214.719 98.1173 213.396 97.456C212.095 96.7733 211.092 95.8133 210.388 94.576C209.705 93.3173 209.364 91.8347 209.364 90.128V75.6H213.588V90.256C213.588 91.6213 213.972 92.6987 214.74 93.488C215.529 94.2773 216.66 94.672 218.132 94.672C219.604 94.672 220.724 94.2773 221.492 93.488C222.281 92.6987 222.676 91.6213 222.676 90.256V75.6H226.9V90.128C226.9 91.8347 226.548 93.3173 225.844 94.576C225.161 95.8133 224.159 96.7733 222.836 97.456C221.535 98.1173 219.967 98.448 218.132 98.448ZM239.792 98V94.288H242.736V79.312H239.792V75.6H249.008C252.016 75.6 254.299 76.368 255.856 77.904C257.435 79.4187 258.224 81.68 258.224 84.688V88.912C258.224 91.92 257.435 94.192 255.856 95.728C254.299 97.2427 252.016 98 249.008 98H239.792ZM246.96 94.16H249.072C250.779 94.16 252.027 93.712 252.816 92.816C253.605 91.92 254 90.6613 254 89.04V84.56C254 82.9173 253.605 81.6587 252.816 80.784C252.027 79.888 250.779 79.44 249.072 79.44H246.96V94.16ZM271.184 98V75.6H285.584V79.44H275.408V84.784H284.688V88.624H275.408V94.16H285.776V98H271.184ZM298.343 98V75.6H306.375L310.823 95.12H311.399V75.6H315.559V98H307.527L303.079 78.48H302.503V98H298.343ZM334.405 98V79.44H327.877V75.6H345.157V79.44H338.629V98H334.405Z" fill="#E7ECEF"/>
<path d="M230.576 148L236.464 125.6H243.824L249.712 148H245.36L244.144 143.072H236.144L234.928 148H230.576ZM237.136 139.168H243.152L240.432 128.256H239.856L237.136 139.168ZM269.609 148.448C267.881 148.448 266.356 148.139 265.033 147.52C263.711 146.901 262.676 146.016 261.929 144.864C261.183 143.712 260.809 142.325 260.809 140.704V139.808H264.969V140.704C264.969 142.048 265.385 143.061 266.217 143.744C267.049 144.405 268.18 144.736 269.609 144.736C271.06 144.736 272.137 144.448 272.841 143.872C273.567 143.296 273.929 142.56 273.929 141.664C273.929 141.045 273.748 140.544 273.385 140.16C273.044 139.776 272.532 139.467 271.849 139.232C271.188 138.976 270.377 138.741 269.417 138.528L268.681 138.368C267.145 138.027 265.823 137.6 264.713 137.088C263.625 136.555 262.783 135.861 262.185 135.008C261.609 134.155 261.321 133.045 261.321 131.68C261.321 130.315 261.641 129.152 262.281 128.192C262.943 127.211 263.86 126.464 265.033 125.952C266.228 125.419 267.625 125.152 269.225 125.152C270.825 125.152 272.244 125.429 273.481 125.984C274.74 126.517 275.721 127.328 276.425 128.416C277.151 129.483 277.513 130.827 277.513 132.448V133.408H273.353V132.448C273.353 131.595 273.183 130.912 272.841 130.4C272.521 129.867 272.052 129.483 271.433 129.248C270.815 128.992 270.079 128.864 269.225 128.864C267.945 128.864 266.996 129.109 266.377 129.6C265.78 130.069 265.481 130.72 265.481 131.552C265.481 132.107 265.62 132.576 265.897 132.96C266.196 133.344 266.633 133.664 267.209 133.92C267.785 134.176 268.521 134.4 269.417 134.592L270.153 134.752C271.753 135.093 273.14 135.531 274.313 136.064C275.508 136.597 276.436 137.301 277.097 138.176C277.759 139.051 278.089 140.171 278.089 141.536C278.089 142.901 277.737 144.107 277.033 145.152C276.351 146.176 275.369 146.987 274.089 147.584C272.831 148.16 271.337 148.448 269.609 148.448ZM298.455 148.448C296.727 148.448 295.202 148.139 293.879 147.52C292.557 146.901 291.522 146.016 290.775 144.864C290.029 143.712 289.655 142.325 289.655 140.704V139.808H293.815V140.704C293.815 142.048 294.231 143.061 295.063 143.744C295.895 144.405 297.026 144.736 298.455 144.736C299.906 144.736 300.983 144.448 301.687 143.872C302.413 143.296 302.775 142.56 302.775 141.664C302.775 141.045 302.594 140.544 302.231 140.16C301.89 139.776 301.378 139.467 300.695 139.232C300.034 138.976 299.223 138.741 298.263 138.528L297.527 138.368C295.991 138.027 294.669 137.6 293.559 137.088C292.471 136.555 291.629 135.861 291.031 135.008C290.455 134.155 290.167 133.045 290.167 131.68C290.167 130.315 290.487 129.152 291.127 128.192C291.789 127.211 292.706 126.464 293.879 125.952C295.074 125.419 296.471 125.152 298.071 125.152C299.671 125.152 301.09 125.429 302.327 125.984C303.586 126.517 304.567 127.328 305.271 128.416C305.997 129.483 306.359 130.827 306.359 132.448V133.408H302.199V132.448C302.199 131.595 302.029 130.912 301.687 130.4C301.367 129.867 300.898 129.483 300.279 129.248C299.661 128.992 298.925 128.864 298.071 128.864C296.791 128.864 295.842 129.109 295.223 129.6C294.626 130.069 294.327 130.72 294.327 131.552C294.327 132.107 294.466 132.576 294.743 132.96C295.042 133.344 295.479 133.664 296.055 133.92C296.631 134.176 297.367 134.4 298.263 134.592L298.999 134.752C300.599 135.093 301.986 135.531 303.159 136.064C304.354 136.597 305.282 137.301 305.943 138.176C306.605 139.051 306.935 140.171 306.935 141.536C306.935 142.901 306.583 144.107 305.879 145.152C305.197 146.176 304.215 146.987 302.935 147.584C301.677 148.16 300.183 148.448 298.455 148.448ZM328.23 148.448C325.414 148.448 323.174 147.68 321.51 146.144C319.846 144.587 319.014 142.368 319.014 139.488V134.112C319.014 131.232 319.846 129.024 321.51 127.488C323.174 125.931 325.414 125.152 328.23 125.152C331.046 125.152 333.286 125.931 334.95 127.488C336.614 129.024 337.446 131.232 337.446 134.112V139.488C337.446 142.368 336.614 144.587 334.95 146.144C333.286 147.68 331.046 148.448 328.23 148.448ZM328.23 144.672C329.808 144.672 331.035 144.213 331.91 143.296C332.784 142.379 333.222 141.152 333.222 139.616V133.984C333.222 132.448 332.784 131.221 331.91 130.304C331.035 129.387 329.808 128.928 328.23 128.928C326.672 128.928 325.446 129.387 324.55 130.304C323.675 131.221 323.238 132.448 323.238 133.984V139.616C323.238 141.152 323.675 142.379 324.55 143.296C325.446 144.213 326.672 144.672 328.23 144.672ZM359.103 148.448C356.329 148.448 354.132 147.68 352.511 146.144C350.889 144.587 350.079 142.368 350.079 139.488V134.112C350.079 131.232 350.889 129.024 352.511 127.488C354.132 125.931 356.329 125.152 359.103 125.152C361.855 125.152 363.977 125.909 365.471 127.424C366.985 128.917 367.743 130.976 367.743 133.6V133.792H363.583V133.472C363.583 132.149 363.209 131.061 362.463 130.208C361.737 129.355 360.617 128.928 359.103 128.928C357.609 128.928 356.436 129.387 355.583 130.304C354.729 131.221 354.303 132.469 354.303 134.048V139.552C354.303 141.109 354.729 142.357 355.583 143.296C356.436 144.213 357.609 144.672 359.103 144.672C360.617 144.672 361.737 144.245 362.463 143.392C363.209 142.517 363.583 141.429 363.583 140.128V139.552H367.743V140C367.743 142.624 366.985 144.693 365.471 146.208C363.977 147.701 361.855 148.448 359.103 148.448ZM380.624 148V125.6H384.848V148H380.624ZM396.966 148L402.854 125.6H410.214L416.102 148H411.75L410.534 143.072H402.534L401.318 148H396.966ZM403.526 139.168H409.542L406.822 128.256H406.246L403.526 139.168ZM431.345 148V129.44H424.817V125.6H442.097V129.44H435.569V148H431.345ZM454.413 148V125.6H458.637V148H454.413ZM480.995 148.448C478.179 148.448 475.939 147.68 474.275 146.144C472.611 144.587 471.779 142.368 471.779 139.488V134.112C471.779 131.232 472.611 129.024 474.275 127.488C475.939 125.931 478.179 125.152 480.995 125.152C483.811 125.152 486.051 125.931 487.715 127.488C489.379 129.024 490.211 131.232 490.211 134.112V139.488C490.211 142.368 489.379 144.587 487.715 146.144C486.051 147.68 483.811 148.448 480.995 148.448ZM480.995 144.672C482.573 144.672 483.8 144.213 484.675 143.296C485.549 142.379 485.987 141.152 485.987 139.616V133.984C485.987 132.448 485.549 131.221 484.675 130.304C483.8 129.387 482.573 128.928 480.995 128.928C479.437 128.928 478.211 129.387 477.315 130.304C476.44 131.221 476.003 132.448 476.003 133.984V139.616C476.003 141.152 476.44 142.379 477.315 143.296C478.211 144.213 479.437 144.672 480.995 144.672ZM503.356 148V125.6H511.388L515.836 145.12H516.412V125.6H520.572V148H512.54L508.092 128.48H507.516V148H503.356ZM560.502 148.448C557.686 148.448 555.446 147.68 553.782 146.144C552.118 144.587 551.286 142.368 551.286 139.488V134.112C551.286 131.232 552.118 129.024 553.782 127.488C555.446 125.931 557.686 125.152 560.502 125.152C563.318 125.152 565.558 125.931 567.222 127.488C568.886 129.024 569.718 131.232 569.718 134.112V139.488C569.718 142.368 568.886 144.587 567.222 146.144C565.558 147.68 563.318 148.448 560.502 148.448ZM560.502 144.672C562.081 144.672 563.308 144.213 564.182 143.296C565.057 142.379 565.494 141.152 565.494 139.616V133.984C565.494 132.448 565.057 131.221 564.182 130.304C563.308 129.387 562.081 128.928 560.502 128.928C558.945 128.928 557.718 129.387 556.822 130.304C555.948 131.221 555.51 132.448 555.51 133.984V139.616C555.51 141.152 555.948 142.379 556.822 143.296C557.718 144.213 558.945 144.672 560.502 144.672ZM582.863 148V125.6H596.943V129.44H587.087V134.848H596.175V138.688H587.087V148H582.863Z" fill="#E7ECEF"/>
<path d="M121.112 198V175.6H125.336V198H121.112ZM138.989 198V175.6H147.021L151.469 195.12H152.045V175.6H156.205V198H148.173L143.725 178.48H143.149V198H138.989ZM169.867 198V175.6H183.947V179.44H174.091V184.848H183.179V188.688H174.091V198H169.867ZM204.917 198.448C202.101 198.448 199.861 197.68 198.197 196.144C196.533 194.587 195.701 192.368 195.701 189.488V184.112C195.701 181.232 196.533 179.024 198.197 177.488C199.861 175.931 202.101 175.152 204.917 175.152C207.733 175.152 209.973 175.931 211.637 177.488C213.301 179.024 214.133 181.232 214.133 184.112V189.488C214.133 192.368 213.301 194.587 211.637 196.144C209.973 197.68 207.733 198.448 204.917 198.448ZM204.917 194.672C206.496 194.672 207.723 194.213 208.597 193.296C209.472 192.379 209.909 191.152 209.909 189.616V183.984C209.909 182.448 209.472 181.221 208.597 180.304C207.723 179.387 206.496 178.928 204.917 178.928C203.36 178.928 202.133 179.387 201.237 180.304C200.363 181.221 199.925 182.448 199.925 183.984V189.616C199.925 191.152 200.363 192.379 201.237 193.296C202.133 194.213 203.36 194.672 204.917 194.672ZM227.278 198V175.6H237.006C238.414 175.6 239.641 175.845 240.686 176.336C241.732 176.827 242.542 177.52 243.118 178.416C243.694 179.312 243.982 180.368 243.982 181.584V181.968C243.982 183.312 243.662 184.4 243.022 185.232C242.382 186.064 241.593 186.672 240.654 187.056V187.632C241.508 187.675 242.169 187.973 242.638 188.528C243.108 189.061 243.342 189.776 243.342 190.672V198H239.118V191.28C239.118 190.768 238.98 190.352 238.702 190.032C238.446 189.712 238.009 189.552 237.39 189.552H231.502V198H227.278ZM231.502 185.712H236.558C237.561 185.712 238.34 185.445 238.894 184.912C239.47 184.357 239.758 183.632 239.758 182.736V182.416C239.758 181.52 239.481 180.805 238.926 180.272C238.372 179.717 237.582 179.44 236.558 179.44H231.502V185.712ZM256.937 198V175.6H264.777L268.649 195.12H269.225L273.097 175.6H280.937V198H276.841V178.704H276.265L272.425 198H265.449L261.609 178.704H261.033V198H256.937ZM293.06 198L298.948 175.6H306.308L312.196 198H307.844L306.628 193.072H298.628L297.412 198H293.06ZM299.62 189.168H305.636L302.916 178.256H302.34L299.62 189.168ZM327.439 198V179.44H320.911V175.6H338.191V179.44H331.663V198H327.439ZM350.507 198V175.6H354.731V198H350.507ZM377.088 198.448C374.272 198.448 372.032 197.68 370.368 196.144C368.704 194.587 367.872 192.368 367.872 189.488V184.112C367.872 181.232 368.704 179.024 370.368 177.488C372.032 175.931 374.272 175.152 377.088 175.152C379.904 175.152 382.144 175.931 383.808 177.488C385.472 179.024 386.304 181.232 386.304 184.112V189.488C386.304 192.368 385.472 194.587 383.808 196.144C382.144 197.68 379.904 198.448 377.088 198.448ZM377.088 194.672C378.667 194.672 379.894 194.213 380.768 193.296C381.643 192.379 382.08 191.152 382.08 189.616V183.984C382.08 182.448 381.643 181.221 380.768 180.304C379.894 179.387 378.667 178.928 377.088 178.928C375.531 178.928 374.304 179.387 373.408 180.304C372.534 181.221 372.096 182.448 372.096 183.984V189.616C372.096 191.152 372.534 192.379 373.408 193.296C374.304 194.213 375.531 194.672 377.088 194.672ZM399.449 198V175.6H407.481L411.929 195.12H412.505V175.6H416.665V198H408.633L404.185 178.48H403.609V198H399.449Z" fill="#E7ECEF"/>
<path d="M308.296 248V229.44H301.768V225.6H319.048V229.44H312.52V248H308.296ZM331.364 248V225.6H345.764V229.44H335.588V234.784H344.868V238.624H335.588V244.16H345.956V248H331.364ZM367.035 248.448C364.262 248.448 362.065 247.68 360.443 246.144C358.822 244.587 358.011 242.368 358.011 239.488V234.112C358.011 231.232 358.822 229.024 360.443 227.488C362.065 225.931 364.262 225.152 367.035 225.152C369.787 225.152 371.91 225.909 373.403 227.424C374.918 228.917 375.675 230.976 375.675 233.6V233.792H371.515V233.472C371.515 232.149 371.142 231.061 370.395 230.208C369.67 229.355 368.55 228.928 367.035 228.928C365.542 228.928 364.369 229.387 363.515 230.304C362.662 231.221 362.235 232.469 362.235 234.048V239.552C362.235 241.109 362.662 242.357 363.515 243.296C364.369 244.213 365.542 244.672 367.035 244.672C368.55 244.672 369.67 244.245 370.395 243.392C371.142 242.517 371.515 241.429 371.515 240.128V239.552H375.675V240C375.675 242.624 374.918 244.693 373.403 246.208C371.91 247.701 369.787 248.448 367.035 248.448ZM388.557 248V225.6H392.781V234.848H401.101V225.6H405.325V248H401.101V238.688H392.781V248H388.557ZM418.997 248V225.6H427.029L431.477 245.12H432.053V225.6H436.213V248H428.181L423.733 228.48H423.157V248H418.997ZM458.578 248.448C455.762 248.448 453.522 247.68 451.858 246.144C450.194 244.587 449.362 242.368 449.362 239.488V234.112C449.362 231.232 450.194 229.024 451.858 227.488C453.522 225.931 455.762 225.152 458.578 225.152C461.394 225.152 463.634 225.931 465.298 227.488C466.962 229.024 467.794 231.232 467.794 234.112V239.488C467.794 242.368 466.962 244.587 465.298 246.144C463.634 247.68 461.394 248.448 458.578 248.448ZM458.578 244.672C460.157 244.672 461.384 244.213 462.258 243.296C463.133 242.379 463.57 241.152 463.57 239.616V233.984C463.57 232.448 463.133 231.221 462.258 230.304C461.384 229.387 460.157 228.928 458.578 228.928C457.021 228.928 455.794 229.387 454.898 230.304C454.024 231.221 453.586 232.448 453.586 233.984V239.616C453.586 241.152 454.024 242.379 454.898 243.296C455.794 244.213 457.021 244.672 458.578 244.672ZM480.939 248V225.6H485.163V244.16H495.403V248H480.939ZM515.677 248.448C512.861 248.448 510.621 247.68 508.957 246.144C507.293 244.587 506.461 242.368 506.461 239.488V234.112C506.461 231.232 507.293 229.024 508.957 227.488C510.621 225.931 512.861 225.152 515.677 225.152C518.493 225.152 520.733 225.931 522.397 227.488C524.061 229.024 524.893 231.232 524.893 234.112V239.488C524.893 242.368 524.061 244.587 522.397 246.144C520.733 247.68 518.493 248.448 515.677 248.448ZM515.677 244.672C517.256 244.672 518.483 244.213 519.357 243.296C520.232 242.379 520.669 241.152 520.669 239.616V233.984C520.669 232.448 520.232 231.221 519.357 230.304C518.483 229.387 517.256 228.928 515.677 228.928C514.12 228.928 512.893 229.387 511.997 230.304C511.123 231.221 510.685 232.448 510.685 233.984V239.616C510.685 241.152 511.123 242.379 511.997 243.296C512.893 244.213 514.12 244.672 515.677 244.672ZM545.782 248.448C544.246 248.448 542.849 248.107 541.59 247.424C540.353 246.72 539.361 245.707 538.614 244.384C537.889 243.04 537.526 241.408 537.526 239.488V234.112C537.526 231.232 538.337 229.024 539.958 227.488C541.58 225.931 543.777 225.152 546.55 225.152C549.302 225.152 551.425 225.888 552.918 227.36C554.433 228.811 555.19 230.784 555.19 233.28V233.408H551.03V233.152C551.03 232.363 550.86 231.648 550.518 231.008C550.198 230.368 549.708 229.867 549.046 229.504C548.385 229.12 547.553 228.928 546.55 228.928C545.057 228.928 543.884 229.387 543.03 230.304C542.177 231.221 541.75 232.469 541.75 234.048V239.552C541.75 241.109 542.177 242.368 543.03 243.328C543.884 244.267 545.078 244.736 546.614 244.736C548.15 244.736 549.27 244.331 549.974 243.52C550.678 242.709 551.03 241.685 551.03 240.448V240.128H545.718V236.544H555.19V248H551.286V245.856H550.71C550.561 246.219 550.316 246.603 549.974 247.008C549.654 247.413 549.164 247.755 548.502 248.032C547.841 248.309 546.934 248.448 545.782 248.448ZM573.332 248V240.288L565.716 225.6H570.42L575.156 235.2H575.732L580.468 225.6H585.172L577.556 240.288V248H573.332Z" fill="#E7ECEF"/>
<mask id="path-8-outside-1_860_261" maskUnits="userSpaceOnUse" x="56" y="361.785" width="274" height="368" fill="black">
<rect fill="white" x="56" y="361.785" width="274" height="368"/>
<path d="M195.5 727.785C168.5 727.785 144.667 722.952 124 713.285C103.333 703.618 87.1667 689.785 75.5 671.785C63.8333 653.785 58 632.118 58 606.785V592.785H123V606.785C123 627.785 129.5 643.618 142.5 654.285C155.5 664.618 173.167 669.785 195.5 669.785C218.167 669.785 235 665.285 246 656.285C257.333 647.285 263 635.785 263 621.785C263 612.118 260.167 604.285 254.5 598.285C249.167 592.285 241.167 587.452 230.5 583.785C220.167 579.785 207.5 576.118 192.5 572.785L181 570.285C157 564.952 136.333 558.285 119 550.285C102 541.952 88.8333 531.118 79.5 517.785C70.5 504.452 66 487.118 66 465.785C66 444.452 71 426.285 81 411.285C91.3333 395.952 105.667 384.285 124 376.285C142.667 367.952 164.5 363.785 189.5 363.785C214.5 363.785 236.667 368.118 256 376.785C275.667 385.118 291 397.785 302 414.785C313.333 431.452 319 452.452 319 477.785V492.785H254V477.785C254 464.452 251.333 453.785 246 445.785C241 437.452 233.667 431.452 224 427.785C214.333 423.785 202.833 421.785 189.5 421.785C169.5 421.785 154.667 425.618 145 433.285C135.667 440.618 131 450.785 131 463.785C131 472.452 133.167 479.785 137.5 485.785C142.167 491.785 149 496.785 158 500.785C167 504.785 178.5 508.285 192.5 511.285L204 513.785C229 519.118 250.667 525.952 269 534.285C287.667 542.618 302.167 553.618 312.5 567.285C322.833 580.952 328 598.452 328 619.785C328 641.118 322.5 659.952 311.5 676.285C300.833 692.285 285.5 704.952 265.5 714.285C245.833 723.285 222.5 727.785 195.5 727.785Z"/>
</mask>
<path d="M124 713.285L123.153 715.097L124 713.285ZM75.5 671.785L77.1783 670.697L75.5 671.785ZM58 592.785V590.785H56V592.785H58ZM123 592.785H125V590.785H123V592.785ZM142.5 654.285L141.231 655.831L141.243 655.841L141.256 655.851L142.5 654.285ZM246 656.285L244.756 654.719L244.745 654.728L244.734 654.737L246 656.285ZM254.5 598.285L253.005 599.614L253.025 599.636L253.046 599.658L254.5 598.285ZM230.5 583.785L229.778 585.65L229.814 585.664L229.85 585.676L230.5 583.785ZM192.5 572.785L192.934 570.833L192.925 570.831L192.5 572.785ZM181 570.285L180.566 572.237L180.575 572.239L181 570.285ZM119 550.285L118.12 552.081L118.141 552.091L118.162 552.101L119 550.285ZM79.5 517.785L77.8423 518.904L77.8518 518.918L77.8615 518.932L79.5 517.785ZM81 411.285L79.3414 410.167L79.3359 410.176L81 411.285ZM124 376.285L124.8 378.118L124.808 378.115L124.815 378.111L124 376.285ZM256 376.785L255.182 378.61L255.201 378.618L255.22 378.626L256 376.785ZM302 414.785L300.321 415.871L300.333 415.891L300.346 415.91L302 414.785ZM319 492.785V494.785H321V492.785H319ZM254 492.785H252V494.785H254V492.785ZM246 445.785L244.285 446.814L244.31 446.855L244.336 446.894L246 445.785ZM224 427.785L223.235 429.633L223.263 429.644L223.291 429.655L224 427.785ZM145 433.285L146.236 434.858L146.243 434.852L145 433.285ZM137.5 485.785L135.879 486.956L135.899 486.985L135.921 487.013L137.5 485.785ZM192.5 511.285L192.925 509.331L192.919 509.329L192.5 511.285ZM204 513.785L203.575 515.739L203.583 515.741L204 513.785ZM269 534.285L268.172 536.106L268.185 536.111L269 534.285ZM312.5 567.285L314.095 566.079L312.5 567.285ZM311.5 676.285L309.841 675.168L309.836 675.176L311.5 676.285ZM265.5 714.285L266.332 716.104L266.339 716.1L266.346 716.097L265.5 714.285ZM195.5 725.785C168.74 725.785 145.205 720.995 124.847 711.473L123.153 715.097C144.129 724.908 168.26 729.785 195.5 729.785V725.785ZM124.847 711.473C104.497 701.955 88.6281 688.363 77.1783 670.697L73.8217 672.873C85.7052 691.207 102.169 705.282 123.153 715.097L124.847 711.473ZM77.1783 670.697C65.7572 653.076 60 631.803 60 606.785H56C56 632.433 61.9095 654.494 73.8217 672.873L77.1783 670.697ZM60 606.785V592.785H56V606.785H60ZM58 594.785H123V590.785H58V594.785ZM121 592.785V606.785H125V592.785H121ZM121 606.785C121 628.221 127.656 644.692 141.231 655.831L143.769 652.739C131.344 642.544 125 627.349 125 606.785H121ZM141.256 655.851C154.714 666.549 172.87 671.785 195.5 671.785V667.785C173.463 667.785 156.286 662.688 143.744 652.719L141.256 655.851ZM195.5 671.785C218.371 671.785 235.751 667.255 247.266 657.833L244.734 654.737C234.249 663.315 217.962 667.785 195.5 667.785V671.785ZM247.244 657.851C259.036 648.487 265 636.419 265 621.785H261C261 635.151 255.631 646.083 244.756 654.719L247.244 657.851ZM265 621.785C265 611.701 262.031 603.346 255.954 596.912L253.046 599.658C258.303 605.224 261 612.535 261 621.785H265ZM255.995 596.956C250.359 590.616 242.017 585.629 231.15 581.894L229.85 585.676C240.316 589.274 247.974 593.954 253.005 599.614L255.995 596.956ZM231.222 581.92C220.767 577.873 207.997 574.18 192.934 570.833L192.066 574.737C207.003 578.056 219.566 581.697 229.778 585.65L231.222 581.92ZM192.925 570.831L181.425 568.331L180.575 572.239L192.075 574.739L192.925 570.831ZM181.434 568.333C157.536 563.022 137.011 556.395 119.838 548.469L118.162 552.101C135.656 560.175 156.464 566.881 180.566 572.237L181.434 568.333ZM119.88 548.489C103.134 540.28 90.2484 529.652 81.1385 516.638L77.8615 518.932C87.4182 532.584 100.866 543.623 118.12 552.081L119.88 548.489ZM81.1577 516.666C72.443 503.755 68 486.847 68 465.785H64C64 487.389 68.557 505.148 77.8423 518.904L81.1577 516.666ZM68 465.785C68 444.773 72.9208 427.009 82.6641 412.394L79.3359 410.176C69.0792 425.561 64 444.131 64 465.785H68ZM82.6585 412.403C92.7621 397.41 106.785 385.979 124.8 378.118L123.2 374.452C104.548 382.591 89.9046 394.493 79.3415 410.167L82.6585 412.403ZM124.815 378.111C143.175 369.915 164.72 365.785 189.5 365.785V361.785C164.28 361.785 142.158 365.988 123.185 374.459L124.815 378.111ZM189.5 365.785C214.268 365.785 236.148 370.077 255.182 378.61L256.818 374.96C237.185 366.159 214.732 361.785 189.5 361.785V365.785ZM255.22 378.626C274.539 386.813 289.55 399.226 300.321 415.871L303.679 413.698C292.45 396.344 276.794 383.424 256.78 374.943L255.22 378.626ZM300.346 415.91C311.402 432.168 317 452.749 317 477.785H321C321 452.154 315.265 430.735 303.654 413.66L300.346 415.91ZM317 477.785V492.785H321V477.785H317ZM319 490.785H254V494.785H319V490.785ZM256 492.785V477.785H252V492.785H256ZM256 477.785C256 464.204 253.286 453.108 247.664 444.676L244.336 446.894C249.381 454.461 252 464.699 252 477.785H256ZM247.715 444.756C242.468 436.012 234.767 429.73 224.709 425.915L223.291 429.655C232.566 433.173 239.532 438.891 244.285 446.814L247.715 444.756ZM224.765 425.937C214.799 421.813 203.027 419.785 189.5 419.785V423.785C202.64 423.785 213.868 425.757 223.235 429.633L224.765 425.937ZM189.5 419.785C169.309 419.785 153.938 423.644 143.757 431.718L146.243 434.852C155.395 427.593 169.691 423.785 189.5 423.785V419.785ZM143.764 431.712C133.898 439.464 129 450.238 129 463.785H133C133 451.332 137.435 441.772 146.236 434.858L143.764 431.712ZM129 463.785C129 472.798 131.259 480.559 135.879 486.956L139.121 484.614C135.074 479.01 133 472.105 133 463.785H129ZM135.921 487.013C140.841 493.338 147.973 498.517 157.188 502.613L158.812 498.957C150.027 495.053 143.492 490.231 139.079 484.557L135.921 487.013ZM157.188 502.613C166.357 506.688 178.001 510.223 192.081 513.241L192.919 509.329C178.999 506.346 167.643 502.882 158.812 498.957L157.188 502.613ZM192.075 513.239L203.575 515.739L204.425 511.831L192.925 509.331L192.075 513.239ZM203.583 515.741C228.477 521.052 250 527.846 268.172 536.106L269.828 532.464C251.333 524.058 229.523 517.185 204.417 511.829L203.583 515.741ZM268.185 536.111C286.603 544.333 300.811 555.141 310.905 568.491L314.095 566.079C303.523 552.095 288.731 540.903 269.815 532.459L268.185 536.111ZM310.905 568.491C320.917 581.733 326 598.778 326 619.785H330C330 598.125 324.75 580.17 314.095 566.079L310.905 568.491ZM326 619.785C326 640.755 320.6 659.192 309.841 675.168L313.159 677.402C324.4 660.711 330 641.482 330 619.785H326ZM309.836 675.176C299.401 690.828 284.372 703.271 264.654 712.473L266.346 716.097C286.628 706.632 302.266 693.742 313.164 677.394L309.836 675.176ZM264.668 712.466C245.319 721.321 222.282 725.785 195.5 725.785V729.785C222.718 729.785 246.348 725.249 266.332 716.104L264.668 712.466Z" fill="#E7ECEF" mask="url(#path-8-outside-1_860_261)"/>
<mask id="path-10-outside-2_860_261" maskUnits="userSpaceOnUse" x="206.027" y="409.913" width="305" height="354" fill="black">
<rect fill="white" x="206.027" y="409.913" width="305" height="354"/>
<path d="M209.027 761.913L301.027 411.913H416.027L508.027 761.913H440.027L421.027 684.913H296.027L277.027 761.913H209.027ZM311.527 623.913H405.527L363.027 453.413H354.027L311.527 623.913Z"/>
</mask>
<path d="M209.027 761.913L207.093 761.404L206.434 763.913H209.027V761.913ZM301.027 411.913V409.913H299.485L299.093 411.404L301.027 411.913ZM416.027 411.913L417.962 411.404L417.57 409.913H416.027V411.913ZM508.027 761.913V763.913H510.621L509.962 761.404L508.027 761.913ZM440.027 761.913L438.086 762.392L438.461 763.913H440.027V761.913ZM421.027 684.913L422.969 684.433L422.594 682.913H421.027V684.913ZM296.027 684.913V682.913H294.461L294.086 684.433L296.027 684.913ZM277.027 761.913V763.913H278.594L278.969 762.392L277.027 761.913ZM311.527 623.913L309.587 623.429L308.968 625.913H311.527V623.913ZM405.527 623.913V625.913H408.087L407.468 623.429L405.527 623.913ZM363.027 453.413L364.968 452.929L364.59 451.413H363.027V453.413ZM354.027 453.413V451.413H352.465L352.087 452.929L354.027 453.413ZM210.962 762.421L302.962 412.421L299.093 411.404L207.093 761.404L210.962 762.421ZM301.027 413.913H416.027V409.913H301.027V413.913ZM414.093 412.421L506.093 762.421L509.962 761.404L417.962 411.404L414.093 412.421ZM508.027 759.913H440.027V763.913H508.027V759.913ZM441.969 761.433L422.969 684.433L419.086 685.392L438.086 762.392L441.969 761.433ZM421.027 682.913H296.027V686.913H421.027V682.913ZM294.086 684.433L275.086 761.433L278.969 762.392L297.969 685.392L294.086 684.433ZM277.027 759.913H209.027V763.913H277.027V759.913ZM311.527 625.913H405.527V621.913H311.527V625.913ZM407.468 623.429L364.968 452.929L361.087 453.896L403.587 624.396L407.468 623.429ZM363.027 451.413H354.027V455.413H363.027V451.413ZM352.087 452.929L309.587 623.429L313.468 624.396L355.968 453.896L352.087 452.929Z" fill="#E7ECEF" mask="url(#path-10-outside-2_860_261)"/>
<mask id="path-12-outside-3_860_261" maskUnits="userSpaceOnUse" x="438.494" y="373.355" width="70" height="354" fill="black">
<rect fill="white" x="438.494" y="373.355" width="70" height="354"/>
<path d="M440.494 725.355V375.355H506.494V725.355H440.494Z"/>
</mask>
<path d="M440.494 725.355H438.494V727.355H440.494V725.355ZM440.494 375.355V373.355H438.494V375.355H440.494ZM506.494 375.355H508.494V373.355H506.494V375.355ZM506.494 725.355V727.355H508.494V725.355H506.494ZM442.494 725.355V375.355H438.494V725.355H442.494ZM440.494 377.355H506.494V373.355H440.494V377.355ZM504.494 375.355V725.355H508.494V375.355H504.494ZM506.494 723.355H440.494V727.355H506.494V723.355Z" fill="#E7ECEF" mask="url(#path-12-outside-3_860_261)"/>
<mask id="path-14-outside-4_860_261" maskUnits="userSpaceOnUse" x="465.934" y="413.568" width="274" height="354" fill="black">
<rect fill="white" x="465.934" y="413.568" width="274" height="354"/>
<path d="M569.934 765.568V475.568H467.934V415.568H737.934V475.568H635.934V765.568H569.934Z"/>
</mask>
<path d="M569.934 765.568H567.934V767.568H569.934V765.568ZM569.934 475.568H571.934V473.568H569.934V475.568ZM467.934 475.568H465.934V477.568H467.934V475.568ZM467.934 415.568V413.568H465.934V415.568H467.934ZM737.934 415.568H739.934V413.568H737.934V415.568ZM737.934 475.568V477.568H739.934V475.568H737.934ZM635.934 475.568V473.568H633.934V475.568H635.934ZM635.934 765.568V767.568H637.934V765.568H635.934ZM571.934 765.568V475.568H567.934V765.568H571.934ZM569.934 473.568H467.934V477.568H569.934V473.568ZM469.934 475.568V415.568H465.934V475.568H469.934ZM467.934 417.568H737.934V413.568H467.934V417.568ZM735.934 415.568V475.568H739.934V415.568H735.934ZM737.934 473.568H635.934V477.568H737.934V473.568ZM633.934 475.568V765.568H637.934V475.568H633.934ZM635.934 763.568H569.934V767.568H635.934V763.568Z" fill="#E7ECEF" mask="url(#path-14-outside-4_860_261)"/>
</g>
<defs>
<clipPath id="clip0_860_261">
<rect width="774" height="744" rx="50" fill="white"/>
</clipPath>
</defs>
</svg>
