<svg width="712" height="687" viewBox="0 0 712 687" fill="none" xmlns="http://www.w3.org/2000/svg">
<path d="M88.5439 541L86.6097 540.492L85.9503 543H88.5439V541ZM180.544 191V189H179.002L178.61 190.492L180.544 191ZM295.544 191L297.478 190.492L297.086 189H295.544V191ZM387.544 541V543H390.138L389.478 540.492L387.544 541ZM319.544 541L317.602 541.479L317.977 543H319.544V541ZM300.544 464L302.486 463.521L302.11 462H300.544V464ZM175.544 464V462H173.977L173.602 463.521L175.544 464ZM156.544 541V543H158.11L158.486 541.479L156.544 541ZM191.044 403L189.103 402.516L188.484 405H191.044V403ZM285.044 403V405H287.604L286.985 402.516L285.044 403ZM242.544 232.5L244.485 232.016L244.107 230.5H242.544V232.5ZM233.544 232.5V230.5H231.981L231.603 232.016L233.544 232.5ZM90.4782 541.508L182.478 191.508L178.61 190.492L86.6097 540.492L90.4782 541.508ZM180.544 193H295.544V189H180.544V193ZM293.61 191.508L385.61 541.508L389.478 540.492L297.478 190.492L293.61 191.508ZM387.544 539H319.544V543H387.544V539ZM321.486 540.521L302.486 463.521L298.602 464.479L317.602 541.479L321.486 540.521ZM300.544 462H175.544V466H300.544V462ZM173.602 463.521L154.602 540.521L158.486 541.479L177.486 464.479L173.602 463.521ZM156.544 539H88.5439V543H156.544V539ZM191.044 405H285.044V401H191.044V405ZM286.985 402.516L244.485 232.016L240.603 232.984L283.103 403.484L286.985 402.516ZM242.544 230.5H233.544V234.5H242.544V230.5ZM231.603 232.016L189.103 402.516L192.985 403.484L235.485 232.984L231.603 232.016Z" fill="#E7ECEF"/>
<path d="M459.972 541H457.972V543H459.972V541ZM459.972 251H461.972V249H459.972V251ZM357.972 251H355.972V253H357.972V251ZM357.972 191V189H355.972V191H357.972ZM627.972 191H629.972V189H627.972V191ZM627.972 251V253H629.972V251H627.972ZM525.972 251V249H523.972V251H525.972ZM525.972 541V543H527.972V541H525.972ZM461.972 541V251H457.972V541H461.972ZM459.972 249H357.972V253H459.972V249ZM359.972 251V191H355.972V251H359.972ZM357.972 193H627.972V189H357.972V193ZM625.972 191V251H629.972V191H625.972ZM627.972 249H525.972V253H627.972V249ZM523.972 251V541H527.972V251H523.972ZM525.972 539H459.972V543H525.972V539Z" fill="#E7ECEF"/>
<path d="M320.728 499H318.728V501H320.728V499ZM320.728 149V147H318.728V149H320.728ZM386.728 149H388.728V147H386.728V149ZM386.728 499V501H388.728V499H386.728ZM322.728 499V149H318.728V499H322.728ZM320.728 151H386.728V147H320.728V151ZM384.728 149V499H388.728V149H384.728ZM386.728 497H320.728V501H386.728V497Z" fill="#E7ECEF"/>
<path d="M-13 484.5L-13.8474 486.312L-13.8474 486.312L-13 484.5ZM-61.5 443L-59.8217 441.912L-59.8217 441.912L-61.5 443ZM-79 364V362H-81V364H-79ZM-14 364H-12V362H-14V364ZM5.5 425.5L4.23137 427.046L4.24337 427.056L4.25552 427.066L5.5 425.5ZM109 427.5L107.756 425.934L107.745 425.943L107.734 425.952L109 427.5ZM117.5 369.5L116.005 370.829L116.025 370.851L116.046 370.873L117.5 369.5ZM93.5 355L92.778 356.865L92.8137 356.879L92.8498 356.891L93.5 355ZM55.5 344L55.9339 342.048L55.9249 342.046L55.5 344ZM44 341.5L43.5661 343.452L43.5751 343.454L44 341.5ZM-18 321.5L-18.8803 323.296L-18.8593 323.306L-18.8381 323.316L-18 321.5ZM-57.5 289L-59.1577 290.119L-59.1482 290.133L-59.1385 290.147L-57.5 289ZM-56 182.5L-57.6586 181.382L-57.6641 181.391L-56 182.5ZM-13 147.5L-12.2001 149.333L-12.1924 149.33L-12.1847 149.326L-13 147.5ZM119 148L118.182 149.825L118.201 149.833L118.22 149.841L119 148ZM165 186L163.321 187.086L163.333 187.106L163.346 187.125L165 186ZM182 264V266H184V264H182ZM117 264H115V266H117V264ZM109 217L107.285 218.029L107.31 218.07L107.336 218.109L109 217ZM87 199L86.2353 200.848L86.2628 200.859L86.2907 200.87L87 199ZM8 204.5L9.23566 206.073L9.24279 206.067L8 204.5ZM0.500002 257L-1.12136 258.171L-1.10054 258.2L-1.0787 258.228L0.500002 257ZM55.5 282.5L55.9249 280.546L55.9191 280.544L55.5 282.5ZM67 285L66.5751 286.954L66.5827 286.956L67 285ZM132 305.5L131.172 307.321L131.185 307.326L132 305.5ZM175.5 338.5L177.095 337.294L177.095 337.294L175.5 338.5ZM174.5 447.5L172.841 446.383L172.836 446.391L174.5 447.5ZM128.5 485.5L129.332 487.319L129.339 487.316L129.346 487.312L128.5 485.5ZM58.5 497C31.7397 497 8.20453 492.21 -12.1526 482.688L-13.8474 486.312C7.12882 496.123 31.2603 501 58.5 501V497ZM-12.1526 482.688C-32.5026 473.17 -48.3719 459.578 -59.8217 441.912L-63.1783 444.088C-51.2948 462.422 -34.8308 476.497 -13.8474 486.312L-12.1526 482.688ZM-59.8217 441.912C-71.2428 424.291 -77 403.018 -77 378H-81C-81 403.648 -75.0905 425.709 -63.1783 444.088L-59.8217 441.912ZM-77 378V364H-81V378H-77ZM-79 366H-14V362H-79V366ZM-16 364V378H-12V364H-16ZM-16 378C-16 399.436 -9.34422 415.907 4.23137 427.046L6.76864 423.954C-5.65578 413.759 -12 398.564 -12 378H-16ZM4.25552 427.066C17.7144 437.764 35.8701 443 58.5 443V439C36.4632 439 19.2857 433.903 6.74449 423.934L4.25552 427.066ZM58.5 443C81.371 443 98.7509 438.47 110.266 429.048L107.734 425.952C97.2491 434.53 80.9623 439 58.5 439V443ZM110.244 429.066C122.036 419.702 128 407.634 128 393H124C124 406.366 118.631 417.298 107.756 425.934L110.244 429.066ZM128 393C128 382.916 125.031 374.561 118.954 368.127L116.046 370.873C121.303 376.439 124 383.75 124 393H128ZM118.995 368.171C113.359 361.831 105.017 356.844 94.1502 353.109L92.8498 356.891C103.316 360.489 110.974 365.169 116.005 370.829L118.995 368.171ZM94.222 353.135C83.7669 349.088 70.9975 345.395 55.9339 342.048L55.0661 345.952C70.0026 349.272 82.5664 352.912 92.778 356.865L94.222 353.135ZM55.9249 342.046L44.4249 339.546L43.5751 343.454L55.0751 345.954L55.9249 342.046ZM44.4339 339.548C20.5355 334.237 0.0111544 327.61 -17.1619 319.684L-18.8381 323.316C-1.34448 331.39 19.4645 338.096 43.5661 343.452L44.4339 339.548ZM-17.1197 319.704C-33.8661 311.495 -46.7516 300.867 -55.8615 287.853L-59.1385 290.147C-49.5818 303.799 -36.1339 314.838 -18.8803 323.296L-17.1197 319.704ZM-55.8423 287.881C-64.557 274.97 -69 258.062 -69 237H-73C-73 258.604 -68.443 276.363 -59.1577 290.119L-55.8423 287.881ZM-69 237C-69 215.988 -64.0792 198.224 -54.3359 183.609L-57.6641 181.391C-67.9208 196.776 -73 215.346 -73 237H-69ZM-54.3415 183.618C-44.2379 168.625 -30.2147 157.194 -12.2001 149.333L-13.7999 145.667C-32.4519 153.806 -47.0954 165.708 -57.6585 181.382L-54.3415 183.618ZM-12.1847 149.326C6.1749 141.13 27.7198 137 52.5 137V133C27.2802 133 5.15845 137.203 -13.8153 145.674L-12.1847 149.326ZM52.5 137C77.2681 137 99.148 141.293 118.182 149.825L119.818 146.175C100.185 137.374 77.7319 133 52.5 133V137ZM118.22 149.841C137.539 158.028 152.55 170.441 163.321 187.086L166.679 184.913C155.45 167.559 139.794 154.639 119.78 146.158L118.22 149.841ZM163.346 187.125C174.402 203.383 180 223.964 180 249H184C184 223.369 178.265 201.95 166.654 184.875L163.346 187.125ZM180 249V264H184V249H180ZM182 262H117V266H182V262ZM119 264V249H115V264H119ZM119 249C119 235.419 116.286 224.324 110.664 215.891L107.336 218.109C112.381 225.676 115 235.914 115 249H119ZM110.715 215.971C105.468 207.227 97.7674 200.945 87.7093 197.13L86.2907 200.87C95.5659 204.388 102.532 210.107 107.285 218.029L110.715 215.971ZM87.7647 197.152C77.799 193.028 66.0266 191 52.5 191V195C65.6401 195 76.8677 196.972 86.2353 200.848L87.7647 197.152ZM52.5 191C32.3086 191 16.9379 194.859 6.75721 202.933L9.24279 206.067C18.3954 198.808 32.6914 195 52.5 195V191ZM6.76436 202.927C-3.10187 210.679 -8 221.453 -8 235H-4C-4 222.547 0.435214 212.987 9.23565 206.073L6.76436 202.927ZM-8 235C-8 244.013 -5.74097 251.775 -1.12136 258.171L2.12136 255.829C-1.92569 250.225 -4 243.32 -4 235H-8ZM-1.0787 258.228C3.84116 264.553 10.9731 269.732 20.1877 273.828L21.8123 270.172C13.0269 266.268 6.49218 261.447 2.07871 255.772L-1.0787 258.228ZM20.1877 273.828C29.3568 277.903 41.0008 281.438 55.0809 284.456L55.9191 280.544C41.9992 277.562 30.6433 274.097 21.8123 270.172L20.1877 273.828ZM55.0751 284.454L66.5751 286.954L67.4249 283.046L55.9249 280.546L55.0751 284.454ZM66.5827 286.956C91.4773 292.267 113 299.061 131.172 307.321L132.828 303.679C114.333 295.273 92.5227 288.4 67.4173 283.044L66.5827 286.956ZM131.185 307.326C149.603 315.549 163.811 326.356 173.905 339.706L177.095 337.294C166.523 323.31 151.731 312.118 132.815 303.674L131.185 307.326ZM173.905 339.706C183.917 352.948 189 369.993 189 391H193C193 369.34 187.75 351.385 177.095 337.294L173.905 339.706ZM189 391C189 411.97 183.6 430.407 172.841 446.383L176.159 448.617C187.4 431.926 193 412.697 193 391H189ZM172.836 446.391C162.401 462.043 147.372 474.486 127.654 483.688L129.346 487.312C149.628 477.847 165.266 464.957 176.164 448.609L172.836 446.391ZM127.668 483.681C108.319 492.536 85.2821 497 58.5 497V501C85.7179 501 109.348 496.464 129.332 487.319L127.668 483.681Z" fill="#E7ECEF"/>
</svg>
